<svg xmlns="http://www.w3.org/2000/svg" viewBox="0 0 684 205"><defs><style>.cls-1,.cls-5{fill:none;}.cls-1{stroke:#d1d1d1;stroke-miterlimit:10;stroke-width:8px;}.cls-2{fill:#d3d3d3;}.cls-3{fill:#bfbfbf;}.cls-4{fill:#8e8e8e;}.cls-5{stroke:#303030;stroke-linecap:round;stroke-linejoin:round;stroke-width:18px;}</style></defs><g id="Layer_2" data-name="Layer 2"><g id="레이어_1" data-name="레이어 1"><path class="cls-1" d="M40.37,38H642.94a31.72,31.72,0,0,1,31.72,31.72V195.75a0,0,0,0,1,0,0H8.66a0,0,0,0,1,0,0V69.67A31.72,31.72,0,0,1,40.37,38Z"/><rect class="cls-2" x="38.42" y="14.95" width="607.16" height="46.51"/><polygon class="cls-3" points="634.88 76.41 47.78 76.41 38.42 61.46 645.58 61.46 634.88 76.41"/><polygon class="cls-4" points="645.58 14.95 38.42 14.95 49.12 0 634.88 0 645.58 14.95"/><polyline class="cls-5" points="67.84 196 9 196 9 122.92"/><polyline class="cls-5" points="616.16 196 675 196 675 122.92"/></g></g></svg>