<?xml version="1.0" encoding="utf-8"?>
<!-- Generator: Adobe Illustrator 24.3.0, SVG Export Plug-In . SVG Version: 6.00 Build 0)  -->
<svg version="1.1" id="레이어_1" xmlns="http://www.w3.org/2000/svg" xmlns:xlink="http://www.w3.org/1999/xlink" x="0px"
	 y="0px" viewBox="0 0 23.3 41.04" style="enable-background:new 0 0 23.3 41.04;" xml:space="preserve">
<style type="text/css">
	.st0{fill:#494949;}
</style>
<g>
	<path class="st0" d="M14.39,41.04H7.82c-1.1,0-1.99-0.89-1.99-1.99V24.23H1.99c-1.1,0-1.99-0.89-1.99-1.99v-6.35
		c0-1.1,0.89-1.99,1.99-1.99h3.83v-3.18c0-3.15,0.99-5.84,2.86-7.76C10.57,1.02,13.2,0,16.3,0l5.01,0.01c1.1,0,1.99,0.89,1.99,1.99
		v5.9c0,1.1-0.89,1.99-1.99,1.99l-3.37,0c-1.03,0-1.29,0.21-1.35,0.27c-0.09,0.1-0.2,0.4-0.2,1.22v2.51h4.67
		c0.35,0,0.69,0.09,0.99,0.25c0.63,0.35,1.02,1.02,1.02,1.74l0,6.35c0,1.1-0.89,1.99-1.99,1.99h-4.69v14.83
		C16.38,40.15,15.49,41.04,14.39,41.04z M8.23,38.64h5.74V23.15c0-0.73,0.6-1.33,1.33-1.33h5.35l0-5.52H15.3
		c-0.73,0-1.33-0.6-1.33-1.33v-3.59c0-0.94,0.1-2.01,0.81-2.81c0.86-0.97,2.21-1.08,3.15-1.08l2.96,0V2.41l-4.6-0.01
		c-4.97,0-8.06,3.18-8.06,8.31v4.26c0,0.73-0.6,1.33-1.33,1.33h-4.5v5.52h4.5c0.73,0,1.33,0.6,1.33,1.33V38.64z M21.3,2.41
		L21.3,2.41L21.3,2.41z"/>
</g>
</svg>
