<?xml version="1.0" encoding="utf-8"?>
<!-- Generator: Adobe Illustrator 24.3.0, SVG Export Plug-In . SVG Version: 6.00 Build 0)  -->
<svg version="1.1" id="레이어_1" xmlns="http://www.w3.org/2000/svg" xmlns:xlink="http://www.w3.org/1999/xlink" x="0px"
	 y="0px" viewBox="0 0 41.04 41.04" style="enable-background:new 0 0 41.04 41.04;" xml:space="preserve">
<style type="text/css">
	.st0{fill:#494949;}
</style>
<g>
	<g>
		<g>
			<path class="st0" d="M28.22,0H12.83C5.74,0,0,5.74,0,12.83v15.39c0,7.08,5.74,12.83,12.83,12.83h15.39
				c7.08,0,12.83-5.74,12.83-12.83V12.83C41.04,5.74,35.3,0,28.22,0z M37.2,28.22c0,4.95-4.03,8.98-8.98,8.98H12.83
				c-4.95,0-8.98-4.03-8.98-8.98V12.83c0-4.95,4.03-8.98,8.98-8.98h15.39c4.95,0,8.98,4.03,8.98,8.98V28.22z"/>
		</g>
	</g>
	<g>
		<g>
			<path class="st0" d="M20.52,10.26c-5.67,0-10.26,4.59-10.26,10.26s4.59,10.26,10.26,10.26s10.26-4.59,10.26-10.26
				S26.19,10.26,20.52,10.26z M20.52,26.93c-3.53,0-6.41-2.88-6.41-6.41c0-3.54,2.88-6.41,6.41-6.41s6.41,2.88,6.41,6.41
				C26.93,24.06,24.06,26.93,20.52,26.93z"/>
		</g>
	</g>
	<g>
		<g>
			<circle class="st0" cx="31.55" cy="9.49" r="1.37"/>
		</g>
	</g>
</g>
</svg>
