<?xml version="1.0" encoding="utf-8"?>
<!-- Generator: Adobe Illustrator 24.3.0, SVG Export Plug-In . SVG Version: 6.00 Build 0)  -->
<svg version="1.1" id="레이어_1" xmlns="http://www.w3.org/2000/svg" xmlns:xlink="http://www.w3.org/1999/xlink" x="0px"
	 y="0px" viewBox="0 0 37.16 26.46" style="enable-background:new 0 0 37.16 26.46;" xml:space="preserve">
<style type="text/css">
	.st0{fill:#FFFFFF;}
</style>
<g id="XMLID_1_">
	<polygon id="XMLID_3_" class="st0" points="1.3,1.22 1.3,2.45 34.57,2.45 34.57,24.01 2.59,24.01 2.59,1.22 1.3,1.22 1.3,2.45 
		1.3,1.22 0,1.22 0,26.46 37.16,26.46 37.16,0 0,0 0,1.22 	"/>
	<path id="XMLID_4_" class="st0" d="M0.69,2.39l14.91,14.27l0,0c0.42,0.4,0.91,0.68,1.42,0.87c0.52,0.19,1.06,0.28,1.6,0.28
		c0.54,0,1.08-0.09,1.6-0.28c0.51-0.19,1-0.47,1.41-0.86l0,0L36.55,2.5l-1.84-1.72l-14.9,14.16l0,0c-0.13,0.12-0.3,0.23-0.5,0.3
		c-0.2,0.07-0.44,0.11-0.67,0.11c-0.23,0-0.47-0.04-0.67-0.11c-0.2-0.07-0.38-0.18-0.51-0.31l0,0L2.54,0.67L0.69,2.39L0.69,2.39z"/>
	<polyline id="XMLID_5_" class="st0" points="3.06,25.3 14.49,14.28 12.63,12.57 1.21,23.59 	"/>
	<polyline id="XMLID_6_" class="st0" points="35.84,23.46 24.71,12.72 22.86,14.43 33.98,25.17 	"/>
</g>
</svg>
