<?xml version="1.0" encoding="utf-8"?>
<!-- Generator: Adobe Illustrator 24.2.1, SVG Export Plug-In . SVG Version: 6.00 Build 0)  -->
<svg version="1.1" id="레이어_1" xmlns="http://www.w3.org/2000/svg" xmlns:xlink="http://www.w3.org/1999/xlink" x="0px"
	 y="0px" viewBox="0 0 167 167" style="enable-background:new 0 0 167 167;" xml:space="preserve">
<style type="text/css">
	.st0{fill:#58859C;}
	.st1{fill:#486770;}
	.st2{fill:#FFFFFF;}
</style>
<g>
	<circle class="st0" cx="83.5" cy="83.5" r="83.5"/>
	<g>
		<path class="st1" d="M57.01,124.22H36.9c-1.29,0-2.33-1.04-2.33-2.33V65.52c0-1.29,1.04-2.33,2.33-2.33h20.11
			c1.29,0,2.33,1.04,2.33,2.33v56.37C59.35,123.17,58.3,124.22,57.01,124.22z"/>
		<path class="st1" d="M125.69,141.94L77.9,124.22c-2.49-0.98-4.31-2.09-4.31-4.67V67.85c0-2.58,1.36-3.19,4.31-4.67l47.79-17.72
			c2.95-0.49,4.31,2.09,4.31,4.67v87.15C130,139.85,128.18,142.43,125.69,141.94z"/>
	</g>
	<g>
		<g>
			<path class="st2" d="M56.01,115.82H35.9c-1.29,0-2.33-1.04-2.33-2.33V57.11c0-1.29,1.04-2.33,2.33-2.33h20.11
				c1.29,0,2.33,1.04,2.33,2.33v56.37C58.35,114.77,57.3,115.82,56.01,115.82z"/>
		</g>
		<g>
			<path class="st2" d="M124.69,133.54L76.9,115.82c-2.49-0.98-4.31-2.09-4.31-4.67V59.45c0-2.58,1.36-3.19,4.31-4.67l47.79-17.72
				c2.95-0.49,4.31,2.09,4.31,4.67v87.15C129,131.45,127.18,134.03,124.69,133.54z"/>
		</g>
	</g>
</g>
</svg>
