<?xml version="1.0" encoding="utf-8"?>
<!-- Generator: Adobe Illustrator 24.3.0, SVG Export Plug-In . SVG Version: 6.00 Build 0)  -->
<svg version="1.1" id="레이어_1" xmlns="http://www.w3.org/2000/svg" xmlns:xlink="http://www.w3.org/1999/xlink" x="0px"
	 y="0px" viewBox="0 0 50 50" style="enable-background:new 0 0 50 50;" xml:space="preserve">
<style type="text/css">
	.st0{fill:#FFFFFF;}
</style>
<g id="XMLID_2_">
	<path id="XMLID_7_" class="st0" d="M41.67,34.67c0-0.24-0.02-0.41-0.07-0.52c-0.07-0.17-0.48-0.49-1.25-0.96
		c-0.77-0.47-1.73-1-2.88-1.61l-1.73-0.94c-0.11-0.07-0.31-0.21-0.62-0.42c-0.3-0.22-0.58-0.38-0.81-0.49
		c-0.24-0.11-0.47-0.16-0.68-0.16c-0.39,0-0.9,0.35-1.53,1.06c-0.63,0.71-1.25,1.42-1.86,2.13c-0.61,0.72-1.09,1.07-1.43,1.07
		c-0.15,0-0.33-0.04-0.54-0.11c-0.21-0.08-0.37-0.15-0.5-0.21s-0.31-0.17-0.55-0.31c-0.24-0.14-0.39-0.23-0.46-0.28
		c-2.15-1.19-4-2.57-5.55-4.12c-1.55-1.55-2.92-3.4-4.12-5.55c-0.04-0.07-0.14-0.22-0.28-0.46c-0.14-0.24-0.24-0.42-0.31-0.55
		c-0.07-0.13-0.14-0.3-0.21-0.5c-0.08-0.21-0.11-0.39-0.11-0.54c0-0.28,0.22-0.65,0.67-1.09c0.44-0.44,0.93-0.86,1.46-1.25
		c0.53-0.39,1.02-0.82,1.46-1.29c0.44-0.47,0.67-0.86,0.67-1.19c0-0.22-0.05-0.44-0.16-0.68c-0.11-0.24-0.27-0.51-0.49-0.81
		c-0.22-0.3-0.36-0.51-0.42-0.62c-0.07-0.13-0.23-0.44-0.49-0.93c-0.26-0.49-0.53-0.98-0.81-1.48c-0.28-0.5-0.57-1.01-0.86-1.55
		c-0.29-0.53-0.56-0.97-0.81-1.32c-0.25-0.35-0.43-0.54-0.54-0.59c-0.11-0.04-0.28-0.07-0.52-0.07c-1.04,0-2.14,0.24-3.29,0.72
		c-1,0.46-1.87,1.48-2.6,3.08c-0.74,1.6-1.11,3.01-1.11,4.25c0,0.35,0.03,0.72,0.08,1.11c0.05,0.39,0.11,0.72,0.16,0.99
		s0.15,0.63,0.29,1.07c0.14,0.44,0.25,0.76,0.33,0.96c0.08,0.2,0.21,0.55,0.41,1.07c0.2,0.52,0.31,0.85,0.36,0.98
		c1.3,3.56,3.65,7.04,7.05,10.43c3.4,3.4,6.87,5.75,10.43,7.05c0.13,0.04,0.46,0.16,0.98,0.36c0.52,0.2,0.88,0.33,1.07,0.41
		c0.2,0.08,0.52,0.18,0.96,0.33c0.44,0.14,0.8,0.24,1.07,0.29c0.27,0.05,0.6,0.11,0.99,0.16c0.39,0.05,0.76,0.08,1.11,0.08
		c1.24,0,2.65-0.37,4.25-1.11c1.59-0.74,2.62-1.61,3.08-2.6C41.43,36.81,41.67,35.71,41.67,34.67z M50,9.38v31.25
		c0,2.58-0.92,4.79-2.75,6.62C45.42,49.08,43.21,50,40.62,50H9.37c-2.58,0-4.79-0.92-6.62-2.75C0.92,45.42,0,43.21,0,40.62V9.38
		c0-2.58,0.92-4.79,2.75-6.62C4.58,0.92,6.79,0,9.37,0h31.25c2.58,0,4.79,0.92,6.62,2.75C49.08,4.58,50,6.79,50,9.38z"/>
</g>
</svg>
