<?xml version="1.0" encoding="utf-8"?>
<!-- Generator: Adobe Illustrator 24.3.0, SVG Export Plug-In . SVG Version: 6.00 Build 0)  -->
<svg version="1.1" id="레이어_1" xmlns="http://www.w3.org/2000/svg" xmlns:xlink="http://www.w3.org/1999/xlink" x="0px"
	 y="0px" viewBox="0 0 167 167" style="enable-background:new 0 0 167 167;" xml:space="preserve">
<style type="text/css">
	.st0{fill:#58859C;}
	.st1{fill:#486770;}
	.st2{fill:none;stroke:#486770;stroke-width:10;stroke-linecap:round;stroke-miterlimit:10;}
	.st3{fill:#FFFFFF;}
	.st4{fill:none;stroke:#FFFFFF;stroke-width:10;stroke-linecap:round;stroke-miterlimit:10;}
</style>
<g>
	<circle class="st0" cx="83.5" cy="83.5" r="83.5"/>
	<g>
		<circle class="st1" cx="57.5" cy="74.5" r="9.5"/>
		<path class="st2" d="M43.98,51h78.04c6.23,0,11.28,5.05,11.28,11.28v53.43c0,6.23-5.05,11.28-11.28,11.28H43.98
			c-6.23,0-11.28-5.05-11.28-11.28V62.28C32.7,56.05,37.75,51,43.98,51z"/>
		<path class="st1" d="M37.33,115.21l27.49-24.1c0.1-0.08,0.19-0.17,0.28-0.26c1.16-1.16,11.83-11.28,20.9,0.11
			c7.27,9.13,15.38-9.06,16.79-12.43c0.17-0.41,0.38-0.8,0.65-1.15c1.78-2.42,8.8-10.39,16.57,2.08
			c5.59,8.97,8.79,13.14,10.46,15.03c0.99,1.13,1.49,2.59,1.42,4.09l-0.95,20.56c-0.12,2.68-2.06,4.93-4.7,5.45l-11.72,2.3
			c-0.41,0.08-0.83,0.12-1.25,0.11l-72.22-1.57c-2.19-0.05-4.16-1.32-5.12-3.29l0,0C34.79,119.77,35.36,116.94,37.33,115.21z"/>
	</g>
	<g>
		<circle class="st3" cx="57.5" cy="67.5" r="9.5"/>
		<path class="st4" d="M43.98,44h78.04c6.23,0,11.28,5.05,11.28,11.28v53.43c0,6.23-5.05,11.28-11.28,11.28H43.98
			c-6.23,0-11.28-5.05-11.28-11.28V55.28C32.7,49.05,37.75,44,43.98,44z"/>
		<path class="st3" d="M37.33,108.21l27.49-24.1c0.1-0.08,0.19-0.17,0.28-0.26c1.16-1.16,11.83-11.28,20.9,0.11
			c7.27,9.13,15.38-9.06,16.79-12.43c0.17-0.41,0.38-0.8,0.65-1.15c1.78-2.42,8.8-10.39,16.57,2.08
			c5.59,8.97,8.79,13.14,10.46,15.03c0.99,1.13,1.49,2.59,1.42,4.09l-0.95,20.56c-0.12,2.68-2.06,4.93-4.7,5.45l-11.72,2.3
			c-0.41,0.08-0.83,0.12-1.25,0.11l-72.22-1.57c-2.19-0.05-4.16-1.32-5.12-3.29l0,0C34.79,112.77,35.36,109.94,37.33,108.21z"/>
	</g>
</g>
</svg>
