<?xml version="1.0" encoding="utf-8"?>
<!-- Generator: Adobe Illustrator 24.3.0, SVG Export Plug-In . SVG Version: 6.00 Build 0)  -->
<svg version="1.1" id="레이어_1" xmlns="http://www.w3.org/2000/svg" xmlns:xlink="http://www.w3.org/1999/xlink" x="0px"
	 y="0px" viewBox="0 0 38.92 40.16" style="enable-background:new 0 0 38.92 40.16;" xml:space="preserve">
<style type="text/css">
	.st0{fill:#494949;}
</style>
<g>
	<path id="패스_412_4_" class="st0" d="M32.43,28.38c-1.57,0.01-3.08,0.56-4.24,1.55l-15.41-8.37c0.12-0.46,0.18-0.94,0.19-1.41
		c-0.01-0.48-0.08-0.95-0.19-1.41l15.24-8.29c1.19,1.05,2.77,1.63,4.41,1.63c3.58,0,6.48-2.7,6.49-6.03c0-0.01,0-0.01,0-0.02
		c0-3.34-2.89-6.04-6.47-6.05c-0.01,0-0.01,0-0.02,0c-3.58,0-6.48,2.7-6.49,6.03c0,0.01,0,0.01,0,0.02
		c0.01,0.48,0.08,0.95,0.19,1.41L10.9,15.74c-1.19-1.05-2.77-1.63-4.41-1.63c-3.58,0-6.48,2.7-6.49,6.03c0,0.01,0,0.01,0,0.02
		c0,3.34,2.89,6.04,6.47,6.05c0.01,0,0.01,0,0.02,0c1.64,0,3.22-0.59,4.41-1.63l15.39,8.39c-0.11,0.43-0.17,0.87-0.17,1.31
		c0,3.25,2.83,5.88,6.31,5.89c3.48,0,6.31-2.64,6.31-5.89C38.74,31.02,35.91,28.39,32.43,28.38z"/>
</g>
</svg>
