<?xml version="1.0" encoding="utf-8"?>
<!-- Generator: Adobe Illustrator 24.3.0, SVG Export Plug-In . SVG Version: 6.00 Build 0)  -->
<svg version="1.1" id="레이어_1" xmlns="http://www.w3.org/2000/svg" xmlns:xlink="http://www.w3.org/1999/xlink" x="0px"
	 y="0px" viewBox="0 0 328.49 66" style="enable-background:new 0 0 328.49 66;" xml:space="preserve">
<style type="text/css">
	.st0{fill:#FFFFFF;}
	.st1{fill:#494949;}
</style>
<g>
	<path class="st0" d="M40.86,64.5c-6.55,0-11.87-4.54-11.87-10.13V42.35L4.24,33l24.75-9.35V11.63c0-5.59,5.33-10.13,11.87-10.13
		h274.26c6.54,0,11.87,4.54,11.87,10.13v42.74c0,5.59-5.33,10.13-11.87,10.13H40.86z"/>
	<path class="st1" d="M315.12,3c5.73,0,10.37,3.86,10.37,8.63v19.33v23.41c0,4.77-4.64,8.63-10.37,8.63H40.86
		c-5.73,0-10.37-3.86-10.37-8.63V41.31L8.49,33l22-8.31V11.63C30.49,6.86,35.13,3,40.86,3H315.12 M315.12,0H40.86
		c-7.37,0-13.37,5.22-13.37,11.63v10.99L7.43,30.19L0,33l7.43,2.81l20.06,7.58v10.98c0,6.41,6,11.63,13.37,11.63h274.26
		c7.37,0,13.37-5.22,13.37-11.63V30.96V11.63C328.49,5.22,322.49,0,315.12,0L315.12,0z"/>
</g>
</svg>
