<?xml version="1.0" encoding="utf-8"?>
<!-- Generator: Adobe Illustrator 24.3.0, SVG Export Plug-In . SVG Version: 6.00 Build 0)  -->
<svg version="1.1" id="레이어_1" xmlns="http://www.w3.org/2000/svg" xmlns:xlink="http://www.w3.org/1999/xlink" x="0px"
	 y="0px" viewBox="0 0 41.04 33.35" style="enable-background:new 0 0 41.04 33.35;" xml:space="preserve">
<style type="text/css">
	.st0{fill:#494949;}
</style>
<g>
	<g>
		<path class="st0" d="M41.04,3.95c-1.53,0.67-3.15,1.11-4.85,1.33c1.74-1.04,3.08-2.68,3.7-4.65c-1.63,0.97-3.42,1.65-5.34,2.04
			C33.02,1.02,30.82,0,28.41,0c-4.66,0-8.41,3.78-8.41,8.42c0,0.67,0.06,1.31,0.19,1.92c-7-0.34-13.19-3.69-17.34-8.8
			c-0.73,1.26-1.15,2.7-1.15,4.25c0,2.91,1.5,5.5,3.74,6.99c-1.35-0.03-2.68-0.42-3.8-1.04c0,0.03,0,0.06,0,0.09
			c0,4.09,2.92,7.49,6.74,8.27c-0.68,0.19-1.43,0.28-2.21,0.28c-0.54,0-1.08-0.03-1.59-0.14c1.09,3.33,4.18,5.78,7.86,5.86
			c-2.86,2.24-6.5,3.59-10.43,3.59c-0.69,0-1.35-0.03-2.01-0.12c3.73,2.4,8.14,3.78,12.91,3.78c15.48,0,23.95-12.83,23.95-23.94
			c0-0.37-0.01-0.73-0.03-1.09C38.5,7.13,39.9,5.65,41.04,3.95z"/>
	</g>
</g>
</svg>
