<?xml version="1.0" encoding="utf-8"?>
<!-- Generator: Adobe Illustrator 24.3.0, SVG Export Plug-In . SVG Version: 6.00 Build 0)  -->
<svg version="1.1" id="레이어_1" xmlns="http://www.w3.org/2000/svg" xmlns:xlink="http://www.w3.org/1999/xlink" x="0px"
	 y="0px" viewBox="0 0 30.24 14.06" style="enable-background:new 0 0 30.24 14.06;" xml:space="preserve">
<style type="text/css">
	.st0{fill:#494949;}
</style>
<g>
	<path class="st0" d="M30.02,6.48C28.42,4.8,23.04-0.11,15.12,0C7.2-0.11,1.82,4.8,0.22,6.48c-0.29,0.31-0.29,0.79,0,1.1
		c1.6,1.68,6.98,6.59,14.9,6.48c7.92,0.12,13.3-4.8,14.9-6.48C30.31,7.27,30.31,6.79,30.02,6.48z M15.12,12.72
		c-3.14,0-5.69-2.55-5.69-5.69s2.55-5.69,5.69-5.69s5.69,2.55,5.69,5.69S18.26,12.72,15.12,12.72z"/>
	<circle class="st0" cx="15.12" cy="7.03" r="2.18"/>
</g>
</svg>
