<?xml version="1.0" encoding="utf-8"?>
<!-- Generator: Adobe Illustrator 24.3.0, SVG Export Plug-In . SVG Version: 6.00 Build 0)  -->
<svg version="1.1" id="레이어_1" xmlns="http://www.w3.org/2000/svg" xmlns:xlink="http://www.w3.org/1999/xlink" x="0px"
	 y="0px" viewBox="0 0 167 167" style="enable-background:new 0 0 167 167;" xml:space="preserve">
<style type="text/css">
	.st0{fill:#58859C;}
	.st1{fill:none;stroke:#486770;stroke-width:10;stroke-miterlimit:10;}
	.st2{fill:#486770;}
	.st3{fill:none;stroke:#FFFFFF;stroke-width:5;stroke-linejoin:round;stroke-miterlimit:10;}
	.st4{fill:#FFFFFF;}
</style>
<g>
	<circle class="st0" cx="83.5" cy="83.5" r="83.5"/>
	<g>
		<path class="st1" d="M42.49,104.3l71.7-71.7c1.87-1.87,4.89-1.87,6.76,0l17.77,17.77c1.87,1.87,1.87,4.89,0,6.76l-71.7,71.7"/>
		
			<rect x="108.51" y="37.52" transform="matrix(0.7071 -0.7071 0.7071 0.7071 -7.0943 97.2534)" class="st2" width="10.67" height="39.34"/>
		<g>
			<path class="st2" d="M44.07,119.93l7.32,7.32l-10.07,2.75L44.07,119.93 M38.95,100.67l-11.89,43.58l43.58-11.89L38.95,100.67
				L38.95,100.67z"/>
		</g>
		<polygon class="st2" points="31.84,139.35 46.03,134.62 36.58,125.17 		"/>
	</g>
	<g>
		<path class="st3" d="M42.49,96.3l71.7-71.7c1.87-1.87,4.89-1.87,6.76,0l17.77,17.77c1.87,1.87,1.87,4.89,0,6.76l-71.7,71.7"/>
		<g>
			
				<rect x="108.51" y="29.52" transform="matrix(0.7071 -0.7071 0.7071 0.7071 -1.4375 94.9102)" class="st4" width="10.67" height="39.34"/>
		</g>
		<g>
			<path class="st4" d="M42.97,103.76l16.58,16.58l-24.66,8.08L42.97,103.76 M40.75,94.47l-13.69,41.78l41.78-13.69L40.75,94.47
				L40.75,94.47z"/>
		</g>
		<g>
			<polygon class="st4" points="31.84,131.35 46.03,126.62 36.58,117.17 			"/>
		</g>
	</g>
</g>
</svg>
