<?xml version="1.0" encoding="utf-8"?>
<!-- Generator: Adobe Illustrator 24.3.0, SVG Export Plug-In . SVG Version: 6.00 Build 0)  -->
<svg version="1.1" id="레이어_1" xmlns="http://www.w3.org/2000/svg" xmlns:xlink="http://www.w3.org/1999/xlink" x="0px"
	 y="0px" viewBox="0 0 41.04 28.22" style="enable-background:new 0 0 41.04 28.22;" xml:space="preserve">
<style type="text/css">
	.st0{fill:#494949;}
</style>
<g>
	<g>
		<path class="st0" d="M39.3,2.72c-1.11-1.98-2.32-2.34-4.78-2.48C32.06,0.07,25.88,0,20.53,0c-5.36,0-11.55,0.07-14,0.23
			c-2.45,0.14-3.67,0.5-4.79,2.49C0.59,4.7,0,8.1,0,14.1c0,0.01,0,0.01,0,0.01c0,0.01,0,0.01,0,0.01v0.01
			c0,5.97,0.59,9.4,1.74,11.36c1.12,1.98,2.33,2.34,4.79,2.51c2.46,0.14,8.64,0.23,14,0.23c5.35,0,11.53-0.08,13.99-0.23
			c2.46-0.17,3.67-0.53,4.78-2.51c1.16-1.96,1.74-5.39,1.74-11.36c0,0,0-0.01,0-0.01c0,0,0-0.01,0-0.01
			C41.04,8.1,40.46,4.7,39.3,2.72z M15.39,21.8V6.41l12.83,7.7L15.39,21.8z"/>
	</g>
</g>
</svg>
