<?xml version="1.0" encoding="utf-8"?>
<!-- Generator: Adobe Illustrator 24.2.1, SVG Export Plug-In . SVG Version: 6.00 Build 0)  -->
<svg version="1.1" id="레이어_1" xmlns="http://www.w3.org/2000/svg" xmlns:xlink="http://www.w3.org/1999/xlink" x="0px"
	 y="0px" viewBox="0 0 19.17 19.4" style="enable-background:new 0 0 19.17 19.4;" xml:space="preserve">
<style type="text/css">
	.st0{fill:#FFFFFF;}
</style>
<g>
	<path class="st0" d="M2.64,15.83H2.33C1.04,15.83,0,14.79,0,13.5V5.9c0-1.29,1.04-2.33,2.33-2.33h0.31c1.29,0,2.33,1.04,2.33,2.33
		v7.59C4.98,14.79,3.93,15.83,2.64,15.83z"/>
	<path class="st0" d="M18.3,19.39l-9.6-3.56c-0.5-0.2-0.87-0.42-0.87-0.94V4.51c0-0.52,0.27-0.64,0.87-0.94l9.6-3.56
		c0.59-0.1,0.87,0.42,0.87,0.94v17.5C19.17,18.97,18.8,19.49,18.3,19.39z"/>
</g>
</svg>
